<?xml version="1.0" encoding="UTF-8"?>
<svg xmlns="http://www.w3.org/2000/svg" viewBox="0 0 33.42 32.13">
  <defs>
    <style>
      .cls-1 {
        fill: #fff;
      }

      .cls-1, .cls-2, .cls-3 {
        stroke-width: 0px;
      }

      .cls-2 {
        fill: #0f0b07;
      }

      .cls-3 {
        fill: #ed7009;
      }
    </style>
  </defs>
  <g id="Layer_3" data-name="Layer 3">
    <rect class="cls-2" width="33.42" height="32.13"/>
  </g>
  <g id="Layer_2" data-name="Layer 2">
    <g id="Dark-sm">
      <path class="cls-3" d="M31.78,23.24c-6.81-5.28-5.22-11.29-4.05-15.65v-.07c.43-1.29.66-2.64.69-3.99-.04-.71-.35-1.37-.87-1.85-.41-.38-.96-.57-1.52-.53-.43.02-.85.14-1.23.34C15.09,6.44,9.41,6.15,6.02,5.98h-.11c-1.36-.07-3.17-.16-4.1.69-.32.31-.51.75-.49,1.21.14.61.44,1.18.88,1.64,4.82,5.79,5.02,14.49,5.09,17.76,0,.42.01.84.06,1.26.23,1.48,1.5,2.56,2.99,2.56.75,0,1.47-.28,2.03-.78,4.1-3.8,10.19-4.07,14.67-4.23,1.42,0,2.83-.14,4.23-.4h.12c.57-.17.97-.69.97-1.29.02-.46-.19-.89-.57-1.15h-.01ZM27.96,3.59c-.03,1.29-.25,2.58-.67,3.8v.07c-.77,2.88-1.72,6.45-.43,10.08-1.64-2.14-3.57-4.02-5.75-5.61,5.08-5.76,6.13-8.59,6.34-9.7.32.38.5.86.52,1.35h-.01ZM25.03,1.92c.33-.18.69-.27,1.06-.29.32-.02.64.05.91.22,0,.52-.43,3.17-6.27,9.79-3.59-2.51-7.66-4.25-11.95-5.1,3.52-.05,8.66-.76,16.26-4.63h-.01,0ZM1.79,7.88c0-.32.11-.63.34-.86.75-.48,1.63-.69,2.51-.59h1.34c5.21.55,10.2,2.41,14.51,5.39-1.06,1.23-2.36,2.58-3.85,4.08-1.2,1.21-2.32,2.51-3.35,3.88-3.67-2.72-6.98-5.89-9.88-9.42-.29-.4-.58-.8-.91-1.19-.33-.36-.57-.8-.7-1.28h-.02.01ZM7.79,28.43c-.04-.39-.06-.78-.05-1.17-.06-2.82-.23-9.61-3.31-15.23,2.6,2.99,5.52,5.68,8.71,8.03-3.89,5.36-3.88,9.16-3.74,10.37-.85-.34-1.46-1.09-1.61-2ZM12.01,29.95c-.47.41-1.07.64-1.69.64-.13.01-.26.01-.39,0-.12-.77-.4-4.64,3.62-10.22,3.78,2.84,8.23,4.66,12.92,5.28-4.49.13-10.4.51-14.49,4.3h.03ZM31.25,25.13h-.08c-.35.08-.7.15-1.06.19-5.42.33-10.88-1.42-16.33-5.28.98-1.33,2.05-2.58,3.21-3.75,1.5-1.52,2.79-2.9,3.9-4.14,2.55,1.87,4.76,4.16,6.53,6.77,1,1.88,2.4,3.51,4.1,4.78.37.29.44.83.16,1.2-.11.14-.27.25-.44.3l.02-.06h-.01Z"/>
      <g>
        <g>
          <polygon class="cls-1" points="22.31 12.97 22.31 28.92 19.81 28.92 19.81 16.2 19.76 16.2 17.84 28.92 15.63 28.92 13.71 16.2 13.67 16.2 13.67 28.92 11.36 28.92 11.36 12.98 15.61 15.57 15.8 16.94 16.81 24.15 16.86 24.15 17.87 16.94 18.05 15.6 22.31 12.97"/>
          <g>
            <path class="cls-1" d="M22.31,6.67l-5.48-3.36-5.47,3.36-2.83,1.74,2.83,1.74,3.21,1.97.61.38,1.65,1.01,1.66-1.02.6-.37,3.22-1.97,2.83-1.74s-2.83-1.74-2.83-1.74ZM19.17,8.27l-.19.11-.82-.41.23-.13c.14-.08.21-.16.2-.23-.02-.07-.09-.14-.24-.21-.14-.07-.28-.11-.41-.11s-.27.04-.41.12l-.55.32,1.22.61-.32.18-1.22-.61-.32.19,1.23.6-.32.19-1.22-.61-.71.4c-.13.08-.2.16-.19.23s.09.14.23.21c.15.07.28.11.42.11.13,0,.26-.04.4-.12l.38-.22.83.41-.33.19c-.33.19-.69.28-1.08.27-.39,0-.79-.11-1.22-.32-.42-.21-.65-.42-.69-.63s.1-.4.43-.59l.65-.38-.22-.11.32-.18.22.11.31-.18-.22-.11.32-.18.22.11.51-.3c.33-.18.69-.27,1.08-.27.39.01.79.12,1.22.33.42.21.65.42.69.62.04.21-.1.41-.43.59Z"/>
            <polygon class="cls-1" points="22.31 10.97 22.31 12.23 18.17 14.75 16.83 15.57 15.5 14.75 11.36 12.21 11.36 10.98 13.23 12.12 15.31 13.38 16.83 14.31 16.83 14.35 18.36 13.41 20.45 12.12 22.31 10.97"/>
          </g>
        </g>
        <g>
          <polygon class="cls-1" points="10.15 9.41 10.15 11.55 9.83 11.55 9.83 9.21 10.15 9.41"/>
          <path class="cls-1" d="M10.15,11.53l.34.94s-.44.46-.97,0l.31-.94h.32Z"/>
        </g>
      </g>
    </g>
  </g>
</svg>