<?xml version="1.0" encoding="UTF-8"?>
<svg id="Layer_2" data-name="Layer 2" xmlns="http://www.w3.org/2000/svg" viewBox="0 0 106.01 40.17">
  <defs>
    <style>
      .cls-1 {
        fill: #ed7009;
      }

      .cls-1, .cls-2 {
        stroke-width: 0px;
      }

      .cls-2 {
        fill: #212121;
      }
    </style>
  </defs>
  <g id="Light-W">
    <path class="cls-1" d="M73.05,29.64c-9.14-7.09-7-15.15-5.43-20.99v-.1c.58-1.73.89-3.53.92-5.36-.05-.95-.47-1.84-1.16-2.48-.55-.51-1.29-.76-2.04-.71-.57.03-1.13.19-1.64.45-13.04,6.65-20.65,6.26-25.2,6.04h-.14c-1.83-.1-4.25-.21-5.5.92-.44.42-.69,1.01-.67,1.62.19.82.59,1.58,1.18,2.2,6.46,7.77,6.73,19.43,6.83,23.82-.01.56.02,1.13.09,1.69.3,1.98,2.01,3.44,4.01,3.43,1,0,1.97-.38,2.72-1.05,5.5-5.1,13.66-5.46,19.67-5.67,1.9,0,3.8-.19,5.67-.54h.16c.77-.23,1.3-.93,1.3-1.73.03-.61-.26-1.2-.77-1.54ZM67.92,3.28c-.04,1.74-.34,3.46-.89,5.1v.1c-1.03,3.87-2.31,8.64-.58,13.52-2.2-2.86-4.79-5.4-7.71-7.53,6.82-7.72,8.22-11.52,8.5-13.01.42.51.67,1.15.69,1.81h-.01ZM64,1.04c.44-.24.92-.37,1.42-.38.43-.03.85.07,1.22.3,0,.69-.58,4.25-8.4,13.14-4.81-3.36-10.27-5.69-16.03-6.84,4.72-.07,11.62-1.02,21.81-6.21h-.01ZM32.82,9.03c-.02-.43.15-.85.45-1.15,1-.64,2.19-.92,3.37-.79h1.8c6.99.74,13.68,3.23,19.46,7.23-1.42,1.64-3.16,3.46-5.16,5.47-1.61,1.63-3.11,3.37-4.49,5.2-4.92-3.65-9.37-7.9-13.25-12.64-.38-.54-.78-1.08-1.22-1.6-.45-.49-.77-1.07-.94-1.71h-.03ZM40.87,36.6c-.05-.52-.08-1.05-.07-1.57-.09-3.78-.31-12.9-4.44-20.42,3.49,4,7.4,7.62,11.68,10.77-5.22,7.18-5.2,12.29-5.02,13.9-1.14-.45-1.96-1.47-2.15-2.68ZM46.54,38.64c-.63.55-1.43.86-2.27.86-.17.01-.35.01-.52,0-.16-1.03-.54-6.22,4.86-13.7,5.08,3.8,11.04,6.24,17.33,7.09-6.02.17-13.94.68-19.43,5.77h.03ZM72.34,32.18h-.11c-.47.11-.94.2-1.42.26-7.27.44-14.6-1.9-21.91-7.09,1.31-1.78,2.75-3.46,4.31-5.03,2.01-2.04,3.74-3.88,5.23-5.56,3.42,2.51,6.38,5.58,8.76,9.08,1.34,2.52,3.21,4.7,5.5,6.41.5.39.6,1.11.21,1.61-.15.19-.36.33-.59.4l.03-.09Z"/>
    <g>
      <g>
        <g>
          <polygon class="cls-2" points="13.78 11.79 13.78 27.74 11.28 27.74 11.28 15.02 11.23 15.02 9.31 27.74 7.1 27.74 5.18 15.02 5.14 15.02 5.14 27.74 2.83 27.74 2.83 11.8 7.08 14.39 7.27 15.76 8.28 22.97 8.33 22.97 9.34 15.76 9.52 14.42 13.78 11.79"/>
          <g>
            <path class="cls-2" d="M13.78,5.49l-5.48-3.36-5.47,3.36-2.83,1.74,1.3.8.33.2,1.2.74,3.21,1.97.61.38,1.65,1.01,1.66-1.02.6-.37,3.22-1.97,2.83-1.74-2.83-1.74ZM10.65,7.09l-.19.11-.83-.41.23-.13c.14-.08.21-.16.2-.23s-.09-.14-.23-.21-.28-.11-.41-.11c-.14,0-.28.04-.42.13l-.55.31,1.23.61-.32.18-1.23-.61-.31.19,1.22.6-.31.19-1.23-.61-.7.4c-.14.08-.2.16-.19.23.01.07.08.14.23.21.14.07.28.11.41.11s.27-.04.41-.12l.38-.22.82.41-.33.19c-.33.19-.68.28-1.07.27-.39,0-.8-.11-1.22-.32-.43-.21-.66-.42-.7-.63-.04-.21.1-.4.43-.59l.66-.38-.23-.11.32-.18.22.11.32-.18-.22-.11.31-.18.22.11.52-.3c.32-.18.68-.27,1.07-.27.39.01.8.12,1.22.33.43.21.66.42.7.62.04.21-.11.41-.43.59Z"/>
            <polygon class="cls-2" points="13.78 9.79 13.78 11.05 9.64 13.57 8.3 14.39 6.97 13.57 2.83 11.03 2.83 9.8 4.7 10.94 6.78 12.2 8.3 13.13 8.3 13.17 9.83 12.23 11.92 10.94 13.78 9.79"/>
          </g>
        </g>
        <path class="cls-2" d="M21.36,10.94h-3.57l-2.74,16.8h2.45l.48-3.29h3v-.04l.48,3.33h2.64l-2.74-16.8ZM18.29,22.17l1.15-8.3h.05l1.18,8.3h-2.38Z"/>
        <path class="cls-2" d="M33.27,26.87c-.03-.3-.05-.69-.05-1.17v-2.95c0-.99-.13-1.78-.4-2.38-.26-.59-.71-.98-1.35-1.17v-.05c1.15-.46,1.73-1.57,1.73-3.31v-1.04c0-1.31-.32-2.28-.94-2.91s-1.62-.95-2.98-.95h-3.91v16.8h2.64v-7.2h.91c.61,0,1.04.15,1.29.46.25.3.37.84.37,1.6v3.08c0,.62.02,1.05.05,1.29.03.24.09.5.19.77h2.69c-.13-.29-.21-.58-.24-.87ZM30.56,16.37c0,.64-.14,1.09-.4,1.36-.26.28-.66.41-1.19.41h-.96v-4.8h1.2c.47,0,.81.14,1.02.41.22.27.33.71.33,1.32v1.3Z"/>
        <path class="cls-2" d="M40.54,17.11l3.14-6.17h-2.64l-3.36,7.08v-7.08h-2.64v16.8h2.64v-5.35l1.06-2.14,2.23,7.49h2.76l-3.19-10.63Z"/>
        <path class="cls-2" d="M52.18,13.34v-2.4h-7.2v16.8h7.2v-2.4h-4.56v-5.16h3.62v-2.4h-3.62v-4.44h4.56Z"/>
        <path class="cls-2" d="M53,10.94v2.4h2.76v14.4h2.64v-14.4h2.76v-2.4h-8.16Z"/>
        <path class="cls-2" d="M69.27,12c-.66-.71-1.64-1.06-2.95-1.06h-3.89v16.8h2.64v-6.84h1.25c1.31,0,2.29-.35,2.95-1.06.65-.7.98-1.73.98-3.09v-1.66c0-1.36-.33-2.39-.98-3.09ZM67.61,16.92c0,.57-.11.98-.32,1.22-.22.24-.54.36-.97.36h-1.25v-5.16h1.25c.43,0,.75.12.97.36.21.24.32.65.32,1.23v1.99Z"/>
        <path class="cls-2" d="M74.33,25.34v-14.4h-2.64v16.8h6.99v-2.4h-4.35Z"/>
        <path class="cls-2" d="M85.66,10.94h-3.58l-2.73,16.8h2.45l.48-3.29h3v-.04l.48,3.33h2.64l-2.74-16.8ZM82.59,22.17l1.15-8.3h.05l1.17,8.3h-2.37Z"/>
        <path class="cls-2" d="M97.23,16.6v-1.77c0-1.31-.34-2.33-1-3.05-.66-.72-1.63-1.08-2.89-1.08s-2.23.36-2.89,1.08c-.67.72-1,1.74-1,3.05v9.02c0,1.32.33,2.33,1,3.05.66.72,1.62,1.08,2.89,1.08s2.23-.36,2.89-1.08c.66-.72,1-1.73,1-3.05v-2.37h-2.5v2.57c0,1.02-.44,1.53-1.32,1.53s-1.32-.51-1.32-1.53v-9.39c0-1.04.44-1.56,1.32-1.56s1.32.52,1.32,1.56v1.94h2.5Z"/>
        <path class="cls-2" d="M106.01,13.34v-2.4h-7.2v16.8h7.2v-2.4h-4.56v-5.16h3.63v-2.4h-3.63v-4.44h4.56Z"/>
      </g>
      <g>
        <polygon class="cls-2" points="1.63 8.23 1.63 10.37 1.3 10.37 1.3 8.03 1.63 8.23"/>
        <path class="cls-2" d="M1.63,10.35l.34.94s-.44.46-.97,0l.31-.94h.32Z"/>
      </g>
    </g>
  </g>
</svg>