<?xml version="1.0" encoding="UTF-8"?>
<svg id="Layer_2" data-name="Layer 2" xmlns="http://www.w3.org/2000/svg" viewBox="0 0 31.03 29.95">
  <defs>
    <style>
      .cls-1 {
        fill: #fff;
      }

      .cls-1, .cls-2 {
        stroke-width: 0px;
      }

      .cls-2 {
        fill: #ed7009;
      }
    </style>
  </defs>
  <g id="Dark-sm">
    <path class="cls-2" d="M30.46,22.1c-6.81-5.28-5.22-11.29-4.05-15.65v-.07c.43-1.29.66-2.64.69-3.99-.04-.71-.35-1.37-.87-1.85-.41-.38-.96-.57-1.52-.53-.43.02-.85.14-1.23.34C13.77,5.3,8.09,5.01,4.7,4.84h-.11c-1.36-.07-3.17-.16-4.1.69C.17,5.84-.02,6.28,0,6.74c.14.61.44,1.18.88,1.64,4.82,5.79,5.02,14.49,5.09,17.76,0,.42.01.84.06,1.26.23,1.48,1.5,2.56,2.99,2.56.75,0,1.47-.28,2.03-.78,4.1-3.8,10.19-4.07,14.67-4.23,1.42,0,2.83-.14,4.23-.4h.12c.57-.17.97-.69.97-1.29.02-.46-.19-.89-.57-1.15ZM26.64,2.45c-.03,1.29-.25,2.58-.67,3.8v.07c-.77,2.88-1.72,6.45-.43,10.08-1.64-2.14-3.57-4.02-5.75-5.61,5.08-5.76,6.13-8.59,6.34-9.7.32.38.5.86.52,1.35h-.01ZM23.71.78c.33-.18.69-.27,1.06-.29.32-.02.64.05.91.22,0,.52-.43,3.17-6.27,9.79-3.59-2.51-7.66-4.25-11.95-5.1,3.52-.05,8.66-.76,16.26-4.63h-.01ZM.47,6.74c-.01-.32.11-.63.34-.86.75-.48,1.63-.69,2.51-.59h1.34c5.21.55,10.2,2.41,14.51,5.39-1.06,1.23-2.36,2.58-3.85,4.08-1.2,1.21-2.32,2.51-3.35,3.88-3.67-2.72-6.98-5.89-9.88-9.42-.29-.4-.58-.8-.91-1.19-.33-.36-.57-.8-.7-1.28h-.02ZM6.47,27.29c-.04-.39-.06-.78-.05-1.17-.06-2.82-.23-9.61-3.31-15.23,2.6,2.99,5.52,5.68,8.71,8.03-3.89,5.36-3.88,9.16-3.74,10.37-.85-.34-1.46-1.09-1.61-2ZM10.69,28.81c-.47.41-1.07.64-1.69.64-.13.01-.26.01-.39,0-.12-.77-.4-4.64,3.62-10.22,3.78,2.84,8.23,4.66,12.92,5.28-4.49.13-10.4.51-14.49,4.3h.02ZM29.93,23.99h-.08c-.35.08-.7.15-1.06.19-5.42.33-10.88-1.42-16.33-5.28.98-1.33,2.05-2.58,3.21-3.75,1.5-1.52,2.79-2.9,3.9-4.14,2.55,1.87,4.76,4.16,6.53,6.77,1,1.88,2.4,3.51,4.1,4.78.37.29.44.83.16,1.2-.11.14-.27.25-.44.3l.02-.06Z"/>
    <g>
      <g>
        <polygon class="cls-1" points="20.99 11.83 20.99 27.78 18.49 27.78 18.49 15.06 18.44 15.06 16.52 27.78 14.31 27.78 12.39 15.06 12.35 15.06 12.35 27.78 10.04 27.78 10.04 11.84 14.29 14.43 14.48 15.8 15.49 23.01 15.54 23.01 16.55 15.8 16.73 14.46 20.99 11.83"/>
        <g>
          <path class="cls-1" d="M20.99,5.53l-5.48-3.36-5.47,3.36-2.83,1.74,2.83,1.74,3.21,1.97.61.38,1.65,1.01,1.66-1.02.6-.37,3.22-1.97,2.83-1.74-2.83-1.74ZM17.85,7.13l-.19.11-.82-.41.23-.13c.14-.08.21-.16.2-.23-.02-.07-.09-.14-.24-.21-.14-.07-.28-.11-.41-.11s-.27.04-.41.12l-.55.32,1.22.61-.32.18-1.22-.61-.32.19,1.23.6-.32.19-1.22-.61-.71.4c-.13.08-.2.16-.19.23.01.07.09.14.23.21.15.07.28.11.42.11.13,0,.26-.04.4-.12l.38-.22.83.41-.33.19c-.33.19-.69.28-1.08.27-.39,0-.79-.11-1.22-.32-.42-.21-.65-.42-.69-.63s.1-.4.43-.59l.65-.38-.22-.11.32-.18.22.11.31-.18-.22-.11.32-.18.22.11.51-.3c.33-.18.69-.27,1.08-.27.39.01.79.12,1.22.33.42.21.65.42.69.62.04.21-.1.41-.43.59Z"/>
          <polygon class="cls-1" points="20.99 9.83 20.99 11.09 16.85 13.61 15.51 14.43 14.18 13.61 10.04 11.07 10.04 9.84 11.91 10.98 13.99 12.24 15.51 13.17 15.51 13.21 17.04 12.27 19.13 10.98 20.99 9.83"/>
        </g>
      </g>
      <g>
        <polygon class="cls-1" points="8.83 8.27 8.83 10.41 8.51 10.41 8.51 8.07 8.83 8.27"/>
        <path class="cls-1" d="M8.83,10.39l.34.94s-.44.46-.97,0l.31-.94h.32Z"/>
      </g>
    </g>
  </g>
</svg>