<?xml version="1.0" encoding="utf-8"?>
<!-- Generator: Adobe Illustrator 28.1.0, SVG Export Plug-In . SVG Version: 6.00 Build 0)  -->
<svg version="1.1" xmlns="http://www.w3.org/2000/svg" xmlns:xlink="http://www.w3.org/1999/xlink" x="0px" y="0px"
	 viewBox="0 0 298.1 104.5" style="enable-background:new 0 0 298.1 104.5;" xml:space="preserve">
<style type="text/css">
	.st0{fill:#ED7009;}
	.st1{fill:#212121;}
	.st2{display:none;fill:#212121;}
	.st3{fill:#FFFFFF;}
</style>
<g id="Light-W">
	<path class="st0" d="M94.3,35.2c-9.1-7.1-7-15.1-5.4-21v-0.1c0.6-1.7,0.9-3.5,0.9-5.4c0-0.9-0.5-1.8-1.2-2.5
		c-0.6-0.5-1.3-0.8-2-0.7c-0.6,0-1.1,0.2-1.6,0.5c-13,6.6-20.6,6.3-25.2,6h-0.1c-1.8-0.1-4.3-0.2-5.5,0.9c-0.4,0.4-0.7,1-0.7,1.6
		c0.2,0.8,0.6,1.6,1.2,2.2c6.5,7.8,6.7,19.4,6.8,23.8c0,0.6,0,1.1,0.1,1.7c0.3,2,2,3.4,4,3.4c1,0,2-0.4,2.7-1
		c5.5-5.1,13.7-5.5,19.7-5.7c1.9,0,3.8-0.2,5.7-0.5h0.2c0.8-0.2,1.3-0.9,1.3-1.7C95.1,36.1,94.8,35.5,94.3,35.2z M89.2,8.8
		c0,1.7-0.3,3.5-0.9,5.1V14c-1,3.9-2.3,8.6-0.6,13.5c-2.2-2.9-4.8-5.4-7.7-7.5c6.8-7.7,8.2-11.5,8.5-13C88.9,7.5,89.2,8.1,89.2,8.8
		L89.2,8.8z M85.2,6.6c0.4-0.2,0.9-0.4,1.4-0.4c0.4,0,0.9,0.1,1.2,0.3c0,0.7-0.6,4.3-8.4,13.1c-4.8-3.4-10.3-5.7-16-6.8
		C68.2,12.7,75.1,11.7,85.2,6.6L85.2,6.6z M54.1,14.5c0-0.4,0.1-0.8,0.5-1.1c1-0.6,2.2-0.9,3.4-0.8c0.6,0,1.2,0,1.7,0h0.1
		c7,0.7,13.7,3.2,19.5,7.2c-1.4,1.6-3.2,3.5-5.2,5.5c-1.6,1.6-3.1,3.4-4.5,5.2c-4.9-3.7-9.4-7.9-13.3-12.6c-0.4-0.5-0.8-1.1-1.2-1.6
		C54.6,15.8,54.3,15.2,54.1,14.5L54.1,14.5z M62.1,42.1c-0.1-0.5-0.1-1-0.1-1.6c-0.1-3.8-0.3-12.9-4.4-20.4c3.5,4,7.4,7.6,11.7,10.8
		c-5.2,7.2-5.2,12.3-5,13.9C63.1,44.3,62.3,43.3,62.1,42.1z M67.8,44.2c-0.6,0.6-1.4,0.9-2.3,0.9c-0.2,0-0.3,0-0.5,0
		c-0.2-1-0.5-6.2,4.9-13.7c5.1,3.8,11,6.2,17.3,7.1C81.2,38.6,73.2,39.1,67.8,44.2L67.8,44.2z M93.6,37.7h-0.1
		c-0.5,0.1-0.9,0.2-1.4,0.3c-7.3,0.4-14.6-1.9-21.9-7.1c1.3-1.8,2.7-3.5,4.3-5c2-2,3.7-3.9,5.2-5.6c3.4,2.5,6.4,5.6,8.8,9.1
		c1.3,2.5,3.2,4.7,5.5,6.4c0.5,0.4,0.6,1.1,0.2,1.6C94,37.6,93.8,37.7,93.6,37.7L93.6,37.7z"/>
	<g>
		<g>
			<g>
				<polygon class="st1" points="35,17.3 35,33.3 32.5,33.3 32.5,20.5 32.5,20.5 30.6,33.3 28.3,33.3 26.4,20.5 26.4,20.5 
					26.4,33.3 24.1,33.3 24.1,17.3 28.3,19.9 28.5,21.3 29.5,28.5 29.6,28.5 30.6,21.3 30.8,19.9 				"/>
				<g>
					<path class="st1" d="M35,11l-5.5-3.4L24.1,11l-2.8,1.7l1.3,0.8l0.3,0.2l1.2,0.7l3.2,2l0.6,0.4l1.6,1l1.7-1l0.6-0.4l3.2-2
						l2.8-1.7L35,11z M31.9,12.6l-0.2,0.1l-0.8-0.4l0.2-0.1c0.1-0.1,0.2-0.2,0.2-0.2s-0.1-0.1-0.2-0.2s-0.3-0.1-0.4-0.1
						c-0.1,0-0.3,0-0.4,0.1l-0.5,0.3l1.2,0.6l-0.3,0.2l-1.2-0.6l-0.3,0.2l1.2,0.6L30,13.2l-1.2-0.6L28,13c-0.1,0.1-0.2,0.2-0.2,0.2
						c0,0.1,0.1,0.1,0.2,0.2c0.1,0.1,0.3,0.1,0.4,0.1s0.3,0,0.4-0.1l0.4-0.2l0.8,0.4l-0.3,0.2c-0.3,0.2-0.7,0.3-1.1,0.3
						c-0.4,0-0.8-0.1-1.2-0.3c-0.4-0.2-0.7-0.4-0.7-0.6c0-0.2,0.1-0.4,0.4-0.6l0.7-0.4l-0.2-0.1l0.3-0.2l0.2,0.1l0.3-0.2l-0.2-0.1
						l0.3-0.2l0.2,0.1l0.5-0.3c0.3-0.2,0.7-0.3,1.1-0.3c0.4,0,0.8,0.1,1.2,0.3c0.4,0.2,0.7,0.4,0.7,0.6
						C32.4,12.2,32.2,12.4,31.9,12.6z"/>
					<polygon class="st1" points="35,15.3 35,16.6 30.9,19.1 29.5,19.9 28.2,19.1 24.1,16.5 24.1,15.3 25.9,16.5 28,17.7 29.5,18.6 
						29.5,18.7 31.1,17.7 33.2,16.5 					"/>
				</g>
			</g>
			<path class="st2" d="M31.2,16.4l0,0.4l-0.1,0.9l-0.2,1.3l-0.1,0.8l-1.2,8.6h0l-1.2-8.6l-0.1-0.8L28,17.7l-0.1-0.9l0-0.4h-3.8
				v16.8h2.3V20.5h0l1.9,12.7h2.2l1.9-12.7h0v12.7H35V16.4H31.2z"/>
			<path class="st1" d="M42.6,16.4H39l-2.7,16.8h2.5l0.5-3.3h3v0l0.5,3.3h2.6L42.6,16.4z M39.5,27.7l1.1-8.3h0l1.2,8.3H39.5z"/>
			<path class="st1" d="M54.5,32.4c0-0.3,0-0.7,0-1.2v-3c0-1-0.1-1.8-0.4-2.4c-0.3-0.6-0.7-1-1.3-1.2v0c1.1-0.5,1.7-1.6,1.7-3.3v-1
				c0-1.3-0.3-2.3-0.9-2.9s-1.6-1-3-1h-3.9v16.8h2.6V26h0.9c0.6,0,1,0.1,1.3,0.5c0.2,0.3,0.4,0.8,0.4,1.6v3.1c0,0.6,0,1,0,1.3
				c0,0.2,0.1,0.5,0.2,0.8h2.7C54.6,33,54.5,32.7,54.5,32.4z M51.8,21.9c0,0.6-0.1,1.1-0.4,1.4c-0.3,0.3-0.7,0.4-1.2,0.4h-1v-4.8
				h1.2c0.5,0,0.8,0.1,1,0.4c0.2,0.3,0.3,0.7,0.3,1.3V21.9z"/>
			<path class="st1" d="M61.8,22.6l3.1-6.2h-2.6l-3.4,7.1v-7.1h-2.6v16.8h2.6v-5.3l1.1-2.1l2.2,7.5H65L61.8,22.6z"/>
			<path class="st1" d="M73.4,18.8v-2.4h-7.2v16.8h7.2v-2.4h-4.6v-5.2h3.6v-2.4h-3.6v-4.4H73.4z"/>
			<path class="st1" d="M74.2,16.4v2.4H77v14.4h2.6V18.8h2.8v-2.4H74.2z"/>
			<path class="st1" d="M90.5,17.5c-0.7-0.7-1.6-1.1-3-1.1h-3.9v16.8h2.6v-6.8h1.2c1.3,0,2.3-0.4,3-1.1c0.6-0.7,1-1.7,1-3.1v-1.7
				C91.5,19.2,91.2,18.2,90.5,17.5z M88.8,22.4c0,0.6-0.1,1-0.3,1.2c-0.2,0.2-0.5,0.4-1,0.4h-1.2v-5.2h1.2c0.4,0,0.8,0.1,1,0.4
				c0.2,0.2,0.3,0.7,0.3,1.2V22.4z"/>
			<path class="st1" d="M95.6,30.8V16.4h-2.6v16.8h7v-2.4H95.6z"/>
			<path class="st1" d="M106.9,16.4h-3.6l-2.7,16.8h2.4l0.5-3.3h3v0l0.5,3.3h2.6L106.9,16.4z M103.8,27.7l1.1-8.3h0.1l1.2,8.3H103.8
				z"/>
			<path class="st1" d="M118.5,22.1v-1.8c0-1.3-0.3-2.3-1-3c-0.7-0.7-1.6-1.1-2.9-1.1c-1.3,0-2.2,0.4-2.9,1.1c-0.7,0.7-1,1.7-1,3v9
				c0,1.3,0.3,2.3,1,3c0.7,0.7,1.6,1.1,2.9,1.1c1.3,0,2.2-0.4,2.9-1.1c0.7-0.7,1-1.7,1-3V27H116v2.6c0,1-0.4,1.5-1.3,1.5
				s-1.3-0.5-1.3-1.5v-9.4c0-1,0.4-1.6,1.3-1.6s1.3,0.5,1.3,1.6v1.9H118.5z"/>
			<path class="st1" d="M127.2,18.8v-2.4H120v16.8h7.2v-2.4h-4.6v-5.2h3.6v-2.4h-3.6v-4.4H127.2z"/>
		</g>
		<g>
			<polygon class="st1" points="22.9,13.7 22.9,15.9 22.5,15.9 22.5,13.5 			"/>
			<path class="st1" d="M22.9,15.9l0.3,0.9c0,0-0.4,0.5-1,0l0.3-0.9H22.9z"/>
		</g>
	</g>
</g>
<g id="Light-sm">
	<path class="st0" d="M90.4,83.7c-6.8-5.3-5.2-11.3-4-15.6V68c0.4-1.3,0.7-2.6,0.7-4c0-0.7-0.3-1.4-0.9-1.8c-0.4-0.4-1-0.6-1.5-0.5
		c-0.4,0-0.8,0.1-1.2,0.3c-9.7,5-15.4,4.7-18.8,4.5h-0.1c-1.4-0.1-3.2-0.2-4.1,0.7c-0.3,0.3-0.5,0.8-0.5,1.2
		c0.1,0.6,0.4,1.2,0.9,1.6c4.8,5.8,5,14.5,5.1,17.8c0,0.4,0,0.8,0.1,1.3c0.2,1.5,1.5,2.6,3,2.6c0.7,0,1.5-0.3,2-0.8
		c4.1-3.8,10.2-4.1,14.7-4.2c1.4,0,2.8-0.1,4.2-0.4H90c0.6-0.2,1-0.7,1-1.3C91,84.4,90.8,84,90.4,83.7z M86.6,64
		c0,1.3-0.3,2.6-0.7,3.8v0.1c-0.8,2.9-1.7,6.4-0.4,10.1c-1.6-2.1-3.6-4-5.7-5.6c5.1-5.8,6.1-8.6,6.3-9.7
		C86.4,63.1,86.6,63.5,86.6,64L86.6,64z M83.7,62.4c0.3-0.2,0.7-0.3,1.1-0.3c0.3,0,0.6,0.1,0.9,0.2c0,0.5-0.4,3.2-6.3,9.8
		c-3.6-2.5-7.7-4.2-11.9-5.1C70.9,67,76.1,66.2,83.7,62.4L83.7,62.4z M60.4,68.3c0-0.3,0.1-0.6,0.3-0.9c0.7-0.5,1.6-0.7,2.5-0.6
		c0.4,0,0.9,0,1.2,0h0.1c5.2,0.6,10.2,2.4,14.5,5.4c-1.1,1.2-2.4,2.6-3.8,4.1c-1.2,1.2-2.3,2.5-3.3,3.9c-3.7-2.7-7-5.9-9.9-9.4
		c-0.3-0.4-0.6-0.8-0.9-1.2C60.8,69.3,60.6,68.8,60.4,68.3L60.4,68.3z M66.4,88.9c0-0.4-0.1-0.8-0.1-1.2c-0.1-2.8-0.2-9.6-3.3-15.2
		c2.6,3,5.5,5.7,8.7,8c-3.9,5.4-3.9,9.2-3.7,10.4C67.2,90.5,66.6,89.8,66.4,88.9z M70.7,90.4c-0.5,0.4-1.1,0.6-1.7,0.6
		c-0.1,0-0.3,0-0.4,0c-0.1-0.8-0.4-4.6,3.6-10.2c3.8,2.8,8.2,4.7,12.9,5.3C80.6,86.2,74.7,86.6,70.7,90.4L70.7,90.4z M89.9,85.6
		L89.9,85.6c-0.4,0.1-0.8,0.1-1.1,0.2c-5.4,0.3-10.9-1.4-16.3-5.3c1-1.3,2.1-2.6,3.2-3.8c1.5-1.5,2.8-2.9,3.9-4.1
		c2.5,1.9,4.8,4.2,6.5,6.8c1,1.9,2.4,3.5,4.1,4.8c0.4,0.3,0.4,0.8,0.2,1.2C90.2,85.5,90,85.6,89.9,85.6L89.9,85.6z"/>
	<g>
		<g>
			<g>
				<polygon class="st1" points="81,73.4 81,89.4 78.5,89.4 78.5,76.7 78.4,76.7 76.5,89.4 74.3,89.4 72.4,76.7 72.3,76.7 
					72.3,89.4 70,89.4 70,73.4 74.3,76 74.4,77.4 75.5,84.6 75.5,84.6 76.5,77.4 76.7,76.1 				"/>
				<g>
					<path class="st1" d="M81,67.1l-5.5-3.4L70,67.1l-2.8,1.7l2.8,1.7l3.2,2l0.6,0.4l1.6,1l1.7-1l0.6-0.4l3.2-2l2.8-1.7L81,67.1z
						 M77.8,68.7l-0.2,0.1l-0.8-0.4l0.2-0.1c0.1-0.1,0.2-0.2,0.2-0.2s-0.1-0.1-0.2-0.2c-0.2-0.1-0.3-0.1-0.4-0.1
						c-0.1,0-0.3,0-0.4,0.1l-0.5,0.3l1.2,0.6L76.5,69l-1.2-0.6L75,68.5l1.2,0.6l-0.3,0.2l-1.2-0.6L74,69.1c-0.1,0.1-0.2,0.1-0.2,0.2
						c0,0.1,0.1,0.1,0.2,0.2c0.2,0.1,0.3,0.1,0.4,0.1s0.3,0,0.4-0.1l0.4-0.2l0.8,0.4l-0.3,0.2c-0.3,0.2-0.7,0.3-1.1,0.3
						c-0.4,0-0.8-0.1-1.2-0.3c-0.4-0.2-0.7-0.4-0.7-0.6c0-0.2,0.1-0.4,0.4-0.6l0.6-0.4l-0.2-0.1l0.3-0.2l0.2,0.1l0.3-0.2l-0.2-0.1
						l0.3-0.2l0.2,0.1l0.5-0.3c0.3-0.2,0.7-0.3,1.1-0.3c0.4,0,0.8,0.1,1.2,0.3c0.4,0.2,0.7,0.4,0.7,0.6
						C78.3,68.3,78.1,68.5,77.8,68.7z"/>
					<polygon class="st1" points="81,71.4 81,72.7 76.8,75.2 75.5,76 74.1,75.2 70,72.7 70,71.4 71.9,72.6 74,73.8 75.5,74.8 
						75.5,74.8 77,73.9 79.1,72.6 					"/>
				</g>
			</g>
			<path class="st2" d="M70,72.6h3.8l1.7,12h0l1.7-12h3.8v16.8h-2.5V76.7h0l-1.9,12.7h-2.2l-1.9-12.7h0v12.7H70V72.6z"/>
		</g>
		<g>
			<polygon class="st1" points="68.8,69.9 68.8,72 68.5,72 68.5,69.7 			"/>
			<path class="st1" d="M68.8,72l0.3,0.9c0,0-0.4,0.5-1,0l0.3-0.9H68.8z"/>
		</g>
	</g>
</g>
<g id="Dark-W">
	<rect x="149.1" y="0" class="st1" width="149.5" height="104.5"/>
	<path class="st0" d="M246.4,35.2c-9.1-7.1-7-15.1-5.4-21v-0.1c0.6-1.7,0.9-3.5,0.9-5.4c0-0.9-0.5-1.8-1.2-2.5
		c-0.6-0.5-1.3-0.8-2-0.7c-0.6,0-1.1,0.2-1.6,0.5c-13,6.6-20.6,6.3-25.2,6h-0.1c-1.8-0.1-4.3-0.2-5.5,0.9c-0.4,0.4-0.7,1-0.7,1.6
		c0.2,0.8,0.6,1.6,1.2,2.2c6.5,7.8,6.7,19.4,6.8,23.8c0,0.6,0,1.1,0.1,1.7c0.3,2,2,3.4,4,3.4c1,0,2-0.4,2.7-1
		c5.5-5.1,13.7-5.5,19.7-5.7c1.9,0,3.8-0.2,5.7-0.5h0.2c0.8-0.2,1.3-0.9,1.3-1.7C247.2,36.1,247,35.5,246.4,35.2z M241.3,8.8
		c0,1.7-0.3,3.5-0.9,5.1V14c-1,3.9-2.3,8.6-0.6,13.5c-2.2-2.9-4.8-5.4-7.7-7.5c6.8-7.7,8.2-11.5,8.5-13
		C241.1,7.5,241.3,8.1,241.3,8.8L241.3,8.8z M237.4,6.6c0.4-0.2,0.9-0.4,1.4-0.4c0.4,0,0.9,0.1,1.2,0.3c0,0.7-0.6,4.3-8.4,13.1
		c-4.8-3.4-10.3-5.7-16-6.8C220.3,12.7,227.2,11.7,237.4,6.6L237.4,6.6z M206.2,14.5c0-0.4,0.1-0.8,0.5-1.1c1-0.6,2.2-0.9,3.4-0.8
		c0.6,0,1.2,0,1.7,0h0.1c7,0.7,13.7,3.2,19.5,7.2c-1.4,1.6-3.2,3.5-5.2,5.5c-1.6,1.6-3.1,3.4-4.5,5.2c-4.9-3.7-9.4-7.9-13.3-12.6
		c-0.4-0.5-0.8-1.1-1.2-1.6C206.7,15.8,206.4,15.2,206.2,14.5L206.2,14.5z M214.3,42.1c-0.1-0.5-0.1-1-0.1-1.6
		c-0.1-3.8-0.3-12.9-4.4-20.4c3.5,4,7.4,7.6,11.7,10.8c-5.2,7.2-5.2,12.3-5,13.9C215.3,44.3,214.5,43.3,214.3,42.1z M219.9,44.2
		c-0.6,0.6-1.4,0.9-2.3,0.9c-0.2,0-0.3,0-0.5,0c-0.2-1-0.5-6.2,4.9-13.7c5.1,3.8,11,6.2,17.3,7.1C233.3,38.6,225.4,39.1,219.9,44.2
		L219.9,44.2z M245.7,37.7h-0.1c-0.5,0.1-0.9,0.2-1.4,0.3c-7.3,0.4-14.6-1.9-21.9-7.1c1.3-1.8,2.7-3.5,4.3-5c2-2,3.7-3.9,5.2-5.6
		c3.4,2.5,6.4,5.6,8.8,9.1c1.3,2.5,3.2,4.7,5.5,6.4c0.5,0.4,0.6,1.1,0.2,1.6C246.2,37.6,245.9,37.7,245.7,37.7L245.7,37.7z"/>
	<g>
		<g>
			<g>
				<polygon class="st3" points="187.2,17.3 187.2,33.3 184.7,33.3 184.7,20.5 184.6,20.5 182.7,33.3 180.5,33.3 178.6,20.5 
					178.5,20.5 178.5,33.3 176.2,33.3 176.2,17.3 180.5,19.9 180.7,21.3 181.7,28.5 181.7,28.5 182.7,21.3 182.9,19.9 				"/>
				<g>
					<path class="st3" d="M187.2,11l-5.5-3.4l-5.5,3.4l-2.8,1.7l2.8,1.7l3.2,2l0.6,0.4l1.7,1l1.7-1l0.6-0.4l3.2-2l2.8-1.7L187.2,11z
						 M184,12.6l-0.2,0.1l-0.8-0.4l0.2-0.1c0.1-0.1,0.2-0.2,0.2-0.2c0-0.1-0.1-0.1-0.2-0.2c-0.1-0.1-0.3-0.1-0.4-0.1
						c-0.1,0-0.3,0-0.4,0.1l-0.6,0.3l1.2,0.6l-0.3,0.2l-1.2-0.6l-0.3,0.2l1.2,0.6l-0.3,0.2l-1.2-0.6l-0.7,0.4
						c-0.1,0.1-0.2,0.2-0.2,0.2c0,0.1,0.1,0.1,0.2,0.2c0.2,0.1,0.3,0.1,0.4,0.1s0.3,0,0.4-0.1l0.4-0.2l0.8,0.4l-0.3,0.2
						c-0.3,0.2-0.7,0.3-1.1,0.3c-0.4,0-0.8-0.1-1.2-0.3c-0.4-0.2-0.7-0.4-0.7-0.6s0.1-0.4,0.4-0.6l0.7-0.4l-0.2-0.1l0.3-0.2l0.2,0.1
						l0.3-0.2l-0.2-0.1l0.3-0.2l0.2,0.1l0.5-0.3c0.3-0.2,0.7-0.3,1.1-0.3c0.4,0,0.8,0.1,1.2,0.3c0.4,0.2,0.6,0.4,0.7,0.6
						C184.5,12.2,184.4,12.4,184,12.6z"/>
					<polygon class="st3" points="187.2,15.3 187.2,16.6 183,19.1 181.7,19.9 180.4,19.1 176.2,16.5 176.2,15.3 178.1,16.5 
						180.2,17.7 181.7,18.6 181.7,18.7 183.2,17.7 185.3,16.5 					"/>
				</g>
			</g>
			<path class="st2" d="M176.2,16.5h3.8l1.7,12h0l1.7-12h3.8v16.8h-2.5V20.5h0l-1.9,12.7h-2.2l-1.9-12.7h0v12.7h-2.3V16.5z"/>
			<path class="st3" d="M191.2,16.5h3.6l2.7,16.8h-2.6l-0.5-3.3v0h-3l-0.5,3.3h-2.4L191.2,16.5z M194.1,27.7l-1.2-8.3h0l-1.2,8.3
				H194.1z"/>
			<path class="st3" d="M198.8,16.5h3.9c1.4,0,2.4,0.3,3,0.9c0.6,0.6,0.9,1.6,0.9,2.9v1c0,1.7-0.6,2.8-1.7,3.3v0
				c0.6,0.2,1.1,0.6,1.4,1.2c0.3,0.6,0.4,1.4,0.4,2.4v3c0,0.5,0,0.9,0,1.2s0.1,0.6,0.2,0.9h-2.7c-0.1-0.3-0.2-0.5-0.2-0.8
				c0-0.2,0-0.7,0-1.3v-3.1c0-0.8-0.1-1.3-0.4-1.6s-0.7-0.5-1.3-0.5h-0.9v7.2h-2.6V16.5z M202.4,23.7c0.5,0,0.9-0.1,1.2-0.4
				s0.4-0.7,0.4-1.4v-1.3c0-0.6-0.1-1-0.3-1.3c-0.2-0.3-0.6-0.4-1-0.4h-1.2v4.8H202.4z"/>
			<path class="st3" d="M208.4,16.5h2.6v7.1l3.4-7.1h2.6l-3.1,6.2l3.2,10.6h-2.8l-2.2-7.5l-1.1,2.1v5.4h-2.6V16.5z"/>
			<path class="st3" d="M218.4,16.5h7.2v2.4H221v4.4h3.6v2.4H221v5.2h4.6v2.4h-7.2V16.5z"/>
			<path class="st3" d="M229.2,18.9h-2.8v-2.4h8.2v2.4h-2.8v14.4h-2.6V18.9z"/>
			<path class="st3" d="M235.8,16.5h3.9c1.3,0,2.3,0.4,3,1.1c0.7,0.7,1,1.7,1,3.1v1.7c0,1.4-0.3,2.4-1,3.1c-0.7,0.7-1.6,1.1-3,1.1
				h-1.2v6.8h-2.6V16.5z M239.7,24c0.4,0,0.8-0.1,1-0.4c0.2-0.2,0.3-0.6,0.3-1.2v-2c0-0.6-0.1-1-0.3-1.2c-0.2-0.2-0.5-0.4-1-0.4
				h-1.2V24H239.7z"/>
			<path class="st3" d="M245.1,16.5h2.6v14.4h4.3v2.4h-7V16.5z"/>
			<path class="st3" d="M255.5,16.5h3.6l2.7,16.8h-2.6l-0.5-3.3v0h-3l-0.5,3.3h-2.4L255.5,16.5z M258.4,27.7l-1.2-8.3h0l-1.2,8.3
				H258.4z"/>
			<path class="st3" d="M263.8,32.4c-0.7-0.7-1-1.7-1-3v-9c0-1.3,0.3-2.3,1-3c0.7-0.7,1.6-1.1,2.9-1.1c1.3,0,2.2,0.4,2.9,1.1
				c0.7,0.7,1,1.7,1,3v1.8h-2.5v-1.9c0-1-0.4-1.6-1.3-1.6c-0.9,0-1.3,0.5-1.3,1.6v9.4c0,1,0.4,1.5,1.3,1.5c0.9,0,1.3-0.5,1.3-1.5V27
				h2.5v2.4c0,1.3-0.3,2.3-1,3c-0.7,0.7-1.6,1.1-2.9,1.1C265.5,33.5,264.5,33.1,263.8,32.4z"/>
			<path class="st3" d="M272.2,16.5h7.2v2.4h-4.6v4.4h3.6v2.4h-3.6v5.2h4.6v2.4h-7.2V16.5z"/>
		</g>
		<g>
			<polygon class="st3" points="175,13.7 175,15.9 174.7,15.9 174.7,13.5 			"/>
			<path class="st3" d="M175,15.9l0.3,0.9c0,0-0.4,0.5-1,0l0.3-0.9H175z"/>
		</g>
	</g>
</g>
<g id="Dark-sm">
	<path class="st0" d="M241.3,85.1c-6.8-5.3-5.2-11.3-4-15.6v-0.1c0.4-1.3,0.7-2.6,0.7-4c0-0.7-0.3-1.4-0.9-1.8
		c-0.4-0.4-1-0.6-1.5-0.5c-0.4,0-0.8,0.1-1.2,0.3c-9.7,5-15.4,4.7-18.8,4.5h-0.1c-1.4-0.1-3.2-0.2-4.1,0.7c-0.3,0.3-0.5,0.8-0.5,1.2
		c0.1,0.6,0.4,1.2,0.9,1.6c4.8,5.8,5,14.5,5.1,17.8c0,0.4,0,0.8,0.1,1.3c0.2,1.5,1.5,2.6,3,2.6c0.7,0,1.5-0.3,2-0.8
		c4.1-3.8,10.2-4.1,14.7-4.2c1.4,0,2.8-0.1,4.2-0.4h0.1c0.6-0.2,1-0.7,1-1.3C241.9,85.8,241.7,85.4,241.3,85.1z M237.5,65.5
		c0,1.3-0.3,2.6-0.7,3.8v0.1c-0.8,2.9-1.7,6.4-0.4,10.1c-1.6-2.1-3.6-4-5.7-5.6c5.1-5.8,6.1-8.6,6.3-9.7
		C237.3,64.5,237.5,65,237.5,65.5L237.5,65.5z M234.6,63.8c0.3-0.2,0.7-0.3,1.1-0.3c0.3,0,0.6,0.1,0.9,0.2c0,0.5-0.4,3.2-6.3,9.8
		c-3.6-2.5-7.7-4.2-11.9-5.1C221.8,68.4,227,67.7,234.6,63.8L234.6,63.8z M211.3,69.8c0-0.3,0.1-0.6,0.3-0.9
		c0.7-0.5,1.6-0.7,2.5-0.6c0.4,0,0.9,0,1.2,0h0.1c5.2,0.6,10.2,2.4,14.5,5.4c-1.1,1.2-2.4,2.6-3.8,4.1c-1.2,1.2-2.3,2.5-3.3,3.9
		c-3.7-2.7-7-5.9-9.9-9.4c-0.3-0.4-0.6-0.8-0.9-1.2C211.7,70.7,211.5,70.2,211.3,69.8L211.3,69.8z M217.3,90.3
		c0-0.4-0.1-0.8-0.1-1.2c-0.1-2.8-0.2-9.6-3.3-15.2c2.6,3,5.5,5.7,8.7,8c-3.9,5.4-3.9,9.2-3.7,10.4C218.1,92,217.5,91.2,217.3,90.3z
		 M221.6,91.8c-0.5,0.4-1.1,0.6-1.7,0.6c-0.1,0-0.3,0-0.4,0c-0.1-0.8-0.4-4.6,3.6-10.2c3.8,2.8,8.2,4.7,12.9,5.3
		C231.5,87.7,225.6,88,221.6,91.8L221.6,91.8z M240.8,87L240.8,87c-0.4,0.1-0.8,0.1-1.1,0.2c-5.4,0.3-10.9-1.4-16.3-5.3
		c1-1.3,2.1-2.6,3.2-3.8c1.5-1.5,2.8-2.9,3.9-4.1c2.5,1.9,4.8,4.2,6.5,6.8c1,1.9,2.4,3.5,4.1,4.8c0.4,0.3,0.4,0.8,0.2,1.2
		C241.1,86.9,241,87,240.8,87L240.8,87z"/>
	<g>
		<g>
			<g>
				<polygon class="st3" points="231.9,74.9 231.9,90.8 229.4,90.8 229.4,78.1 229.3,78.1 227.4,90.8 225.2,90.8 223.3,78.1 
					223.2,78.1 223.2,90.8 220.9,90.8 220.9,74.9 225.2,77.5 225.3,78.8 226.4,86 226.4,86 227.4,78.8 227.6,77.5 				"/>
				<g>
					<path class="st3" d="M231.9,68.5l-5.5-3.4l-5.5,3.4l-2.8,1.7l2.8,1.7l3.2,2l0.6,0.4l1.7,1l1.7-1l0.6-0.4l3.2-2l2.8-1.7
						L231.9,68.5z M228.7,70.1l-0.2,0.1l-0.8-0.4l0.2-0.1c0.1-0.1,0.2-0.2,0.2-0.2c0-0.1-0.1-0.1-0.2-0.2c-0.1-0.1-0.3-0.1-0.4-0.1
						s-0.3,0-0.4,0.1l-0.5,0.3l1.2,0.6l-0.3,0.2l-1.2-0.6l-0.3,0.2l1.2,0.6l-0.3,0.2l-1.2-0.6l-0.7,0.4c-0.1,0.1-0.2,0.2-0.2,0.2
						c0,0.1,0.1,0.1,0.2,0.2c0.2,0.1,0.3,0.1,0.4,0.1c0.1,0,0.3,0,0.4-0.1l0.4-0.2l0.8,0.4l-0.3,0.2c-0.3,0.2-0.7,0.3-1.1,0.3
						c-0.4,0-0.8-0.1-1.2-0.3c-0.4-0.2-0.7-0.4-0.7-0.6s0.1-0.4,0.4-0.6l0.7-0.4l-0.2-0.1l0.3-0.2l0.2,0.1l0.3-0.2l-0.2-0.1l0.3-0.2
						l0.2,0.1l0.5-0.3c0.3-0.2,0.7-0.3,1.1-0.3c0.4,0,0.8,0.1,1.2,0.3c0.4,0.2,0.6,0.4,0.7,0.6C229.2,69.8,229,70,228.7,70.1z"/>
					<polygon class="st3" points="231.9,72.9 231.9,74.1 227.7,76.6 226.4,77.5 225,76.6 220.9,74.1 220.9,72.9 222.8,74 
						224.9,75.3 226.4,76.2 226.4,76.2 227.9,75.3 230,74 					"/>
				</g>
			</g>
			<path class="st2" d="M220.9,74h3.8l1.7,12h0l1.7-12h3.8v16.8h-2.5V78.1h0l-1.9,12.7h-2.2l-1.9-12.7h0v12.7h-2.3V74z"/>
		</g>
		<g>
			<polygon class="st3" points="219.7,71.3 219.7,73.4 219.4,73.4 219.4,71.1 			"/>
			<path class="st3" d="M219.7,73.4l0.3,0.9c0,0-0.4,0.5-1,0l0.3-0.9H219.7z"/>
		</g>
	</g>
</g>
</svg>
